<?xml version="1.0" encoding="UTF-8" standalone="no"?>
<svg
   width="16"
   height="16"
   version="1.1"
   id="svg4"
   sodipodi:docname="folder-symbolic.svg"
   inkscape:version="1.2 (dc2aedaf03, 2022-05-15)"
   xmlns:inkscape="http://www.inkscape.org/namespaces/inkscape"
   xmlns:sodipodi="http://sodipodi.sourceforge.net/DTD/sodipodi-0.dtd"
   xmlns="http://www.w3.org/2000/svg"
   xmlns:svg="http://www.w3.org/2000/svg">
  <defs
     id="defs8" />
  <sodipodi:namedview
     id="namedview6"
     pagecolor="#ffffff"
     bordercolor="#000000"
     borderopacity="0.25"
     inkscape:showpageshadow="2"
     inkscape:pageopacity="0.0"
     inkscape:pagecheckerboard="0"
     inkscape:deskcolor="#d1d1d1"
     showgrid="false"
     showguides="true"
     inkscape:zoom="54.625"
     inkscape:cx="10.361556"
     inkscape:cy="8"
     inkscape:window-width="1920"
     inkscape:window-height="1046"
     inkscape:window-x="1920"
     inkscape:window-y="0"
     inkscape:window-maximized="0"
     inkscape:current-layer="svg4" />
  <path
     id="path2"
     style="fill:#000000;fill-opacity:0"
     d="M 9.9921875 4.1796875 C 9.9501395 4.1784003 9.9098746 4.1817658 9.8730469 4.1894531 C 9.8362191 4.1971405 9.8023768 4.2094984 9.7714844 4.2226562 C 9.740592 4.2358141 9.711742 4.2505006 9.6875 4.265625 C 9.663258 4.2807494 9.6438295 4.2950068 9.6269531 4.3085938 C 9.5932003 4.3357676 9.5742188 4.3574219 9.5742188 4.3574219 L 5.1074219 12.082031 C 5.1074219 12.082031 5.0957121 12.110483 5.0839844 12.15625 C 5.0781205 12.179133 5.0721137 12.206294 5.0683594 12.236328 C 5.0646051 12.266362 5.0627369 12.299659 5.0644531 12.333984 C 5.0661694 12.368309 5.0714835 12.403698 5.0820312 12.439453 C 5.092579 12.475208 5.1081191 12.510597 5.1308594 12.544922 C 5.1422295 12.562084 5.1548734 12.579435 5.1699219 12.595703 C 5.1849703 12.611972 5.2015563 12.627561 5.2207031 12.642578 C 5.23985 12.657595 5.2614908 12.672139 5.2851562 12.685547 C 5.3088217 12.698955 5.3346772 12.711215 5.3632812 12.722656 C 5.3918853 12.734098 5.4202482 12.743162 5.4472656 12.75 C 5.4742831 12.756838 5.4999866 12.762872 5.5253906 12.765625 C 5.5507946 12.768378 5.5758456 12.768392 5.5996094 12.767578 C 5.6233731 12.766765 5.6458721 12.763627 5.6679688 12.759766 C 5.7121621 12.752043 5.7536515 12.739461 5.7910156 12.722656 C 5.8283797 12.705851 5.8622578 12.685802 5.8925781 12.664062 C 5.9228985 12.642323 5.9495942 12.618229 5.9726562 12.595703 C 5.9957183 12.573177 6.0156608 12.552368 6.03125 12.533203 C 6.0624285 12.494874 6.078125 12.466797 6.078125 12.466797 L 10.34375 5.0351562 C 10.34375 5.0351562 10.364073 5.0007553 10.388672 4.9472656 C 10.400971 4.9205208 10.413553 4.8888059 10.425781 4.8535156 C 10.438009 4.8182253 10.449022 4.7788991 10.457031 4.7382812 C 10.46504 4.6976634 10.471061 4.6560086 10.470703 4.6132812 C 10.470524 4.5919176 10.467892 4.5701158 10.464844 4.5488281 C 10.461796 4.5275404 10.457608 4.5071376 10.451172 4.4863281 C 10.444736 4.4655186 10.436123 4.4437571 10.425781 4.4238281 C 10.415439 4.4038991 10.403439 4.3858338 10.388672 4.3671875 C 10.373905 4.3485412 10.357601 4.3294613 10.337891 4.3125 C 10.318181 4.2955387 10.294703 4.2804991 10.269531 4.265625 C 10.24436 4.2507509 10.219581 4.237222 10.195312 4.2265625 C 10.171044 4.215903 10.148277 4.2080547 10.125 4.2011719 C 10.078447 4.1874061 10.034236 4.1809747 9.9921875 4.1796875 z " />
  <path
     id="path4580"
     style="fill:#ffffff;fill-opacity:1"
     d="M 2 1 C 2 1 1 1.000001 1 2 L 1 13 C 1 13 1.000001 14 2 14 L 14 14 C 14 14 15 13.999999 15 13 L 15 4 C 15 3.000001 14 3 14 3 L 9 3 L 7 1 L 2 1 z M 9.9921875 4.1796875 C 10.034236 4.1809747 10.078447 4.1874061 10.125 4.2011719 C 10.148277 4.2080547 10.171044 4.215903 10.195312 4.2265625 C 10.219581 4.237222 10.24436 4.2507509 10.269531 4.265625 C 10.294703 4.2804991 10.318181 4.2955387 10.337891 4.3125 C 10.357601 4.3294613 10.373905 4.3485412 10.388672 4.3671875 C 10.403439 4.3858338 10.415439 4.4038991 10.425781 4.4238281 C 10.436123 4.4437571 10.444736 4.4655186 10.451172 4.4863281 C 10.457608 4.5071376 10.461796 4.5275404 10.464844 4.5488281 C 10.467892 4.5701158 10.470524 4.5919176 10.470703 4.6132812 C 10.471061 4.6560086 10.46504 4.6976634 10.457031 4.7382812 C 10.449022 4.7788991 10.438009 4.8182253 10.425781 4.8535156 C 10.413553 4.8888059 10.400971 4.9205208 10.388672 4.9472656 C 10.364073 5.0007553 10.34375 5.0351562 10.34375 5.0351562 L 6.078125 12.466797 C 6.078125 12.466797 6.0624285 12.494874 6.03125 12.533203 C 6.0156608 12.552368 5.9957183 12.573177 5.9726562 12.595703 C 5.9495942 12.618229 5.9228985 12.642323 5.8925781 12.664062 C 5.8622578 12.685802 5.8283797 12.705851 5.7910156 12.722656 C 5.7536515 12.739461 5.7121621 12.752043 5.6679688 12.759766 C 5.6458721 12.763627 5.6233731 12.766765 5.5996094 12.767578 C 5.5758456 12.768392 5.5507946 12.768378 5.5253906 12.765625 C 5.4999866 12.762872 5.4742831 12.756838 5.4472656 12.75 C 5.4202482 12.743162 5.3918853 12.734098 5.3632812 12.722656 C 5.3346772 12.711215 5.3088217 12.698955 5.2851562 12.685547 C 5.2614908 12.672139 5.23985 12.657595 5.2207031 12.642578 C 5.2015563 12.627561 5.1849703 12.611972 5.1699219 12.595703 C 5.1548734 12.579435 5.1422295 12.562084 5.1308594 12.544922 C 5.1081191 12.510597 5.092579 12.475208 5.0820312 12.439453 C 5.0714835 12.403698 5.0661694 12.368309 5.0644531 12.333984 C 5.0627369 12.299659 5.0646051 12.266362 5.0683594 12.236328 C 5.0721137 12.206294 5.0781205 12.179133 5.0839844 12.15625 C 5.0957121 12.110483 5.1074219 12.082031 5.1074219 12.082031 L 9.5742188 4.3574219 C 9.5742188 4.3574219 9.5932003 4.3357676 9.6269531 4.3085938 C 9.6438295 4.2950068 9.663258 4.2807494 9.6875 4.265625 C 9.711742 4.2505006 9.740592 4.2358141 9.7714844 4.2226562 C 9.8023768 4.2094984 9.8362191 4.1971405 9.8730469 4.1894531 C 9.9098746 4.1817658 9.9501395 4.1784003 9.9921875 4.1796875 z " />
</svg>
