<?xml version="1.0" encoding="UTF-8" standalone="no"?>
<!-- Svg Vector Icons : http://www.onlinewebfonts.com/icon -->

<svg
   version="1.1"
   x="0px"
   y="0px"
   viewBox="0 0 1000 1000"
   enable-background="new 0 0 1000 1000"
   xml:space="preserve"
   id="svg52"
   sodipodi:docname="55957158254111bdf83297f604110012.svg"
   inkscape:version="1.2 (dc2aedaf03, 2022-05-15)"
   xmlns:inkscape="http://www.inkscape.org/namespaces/inkscape"
   xmlns:sodipodi="http://sodipodi.sourceforge.net/DTD/sodipodi-0.dtd"
   xmlns="http://www.w3.org/2000/svg"
   xmlns:svg="http://www.w3.org/2000/svg"><defs
   id="defs56" /><sodipodi:namedview
   id="namedview54"
   pagecolor="#EBDBB2"
   bordercolor="#000000"
   borderopacity="0.25"
   inkscape:showpageshadow="2"
   inkscape:pageopacity="0.0"
   inkscape:pagecheckerboard="0"
   inkscape:deskcolor="#d1d1d1"
   showgrid="false"
   inkscape:zoom="0.874"
   inkscape:cx="526.31579"
   inkscape:cy="502.28833"
   inkscape:window-width="1408"
   inkscape:window-height="1030"
   inkscape:window-x="1928"
   inkscape:window-y="40"
   inkscape:window-maximized="0"
   inkscape:current-layer="svg52" />
<metadata
   id="metadata46"> Svg Vector Icons : http://www.onlinewebfonts.com/icon </metadata>
<g
   id="g50"
   style="fill:#EBDBB2"><path
     d="M 985.9,987.9 C 868,918.8 744.1,854.8 609.7,825.1 609.1,757 617.6,682.2 572.2,625.1 548.6,584.7 489.1,566.1 452.8,601 392.8,656.4 382.7,747.9 398.7,824.2 258.9,849.9 135,923.2 10,986.8 118.1,782.1 235.4,582 338,374.3 c 14.5,-30.7 28,-74.8 61.7,-33.3 19.7,13.1 81.4,52 80.9,40.3 -30.1,-32.8 -97,-61.9 -93.9,-106.5 39.7,-87.3 74,-177.9 113.3,-264.8 37,73.6 65,152.3 100.9,227 84.8,181.1 181.2,356.5 273.2,533.9 -30,-11.9 -94.2,-46 -102.1,-36.5 47.8,32.4 99.3,62.2 138.8,104.6 28.5,47.7 55.4,96.8 79.2,147 l -0.1,4.3 -4,-2.4 z"
     id="path48"
     style="fill:#EBDBB2" /></g>
</svg>
