<svg xmlns="http://www.w3.org/2000/svg" version="1.1" xmlns:xlink="http://www.w3.org/1999/xlink" xmlns:svgjs="http://svgjs.com/svgjs" width="512" height="512" x="0" y="0" viewBox="0 0 24 24" style="enable-background:new 0 0 512 512" xml:space="preserve" class=""><g><defs xmlns="http://www.w3.org/2000/svg"><path id="path-1" d="m16.525 2.7657-2.024 2.025-.235-.233c-.72-.723-1.973-.728-2.707.007-.744.743-.744 1.955 0 2.7l.234.234-8.026 8.025c-.582.582-.85 1.416-.732 2.231l-.577.579c-.607.58-.605 1.626 0 2.206.578.607 1.625.607 2.207.001l.577-.579c.813.12 1.65-.15 2.232-.731l8.026-8.025.233.233c.745.745 1.956.745 2.707-.006.744-.745.744-1.957 0-2.7l-.232-.235 2.024-2.024c1.019-.978 1.018-2.732-.002-3.708-.51-.51-1.181-.766-1.852-.766-.671 0-1.343.256-1.853.766zm-1.672 3.087 2.379-2.379c.611-.612 1.68-.612 2.293.002.628.602.629 1.687 0 2.29l-2.379 2.379c-.196.194-.196.512 0 .707l.586.587c.355.354.355.932-.005 1.293-.355.355-.931.355-1.287 0l-4.174-4.174c-.354-.355-.354-.932.006-1.292.344-.348.943-.348 1.287 0l.587.587c.098.097.226.145.354.145.128 0 .256-.048.353-.145zm-11.688 13.188.767-.768c.126-.126.174-.309.13-.48-.148-.571.005-1.154.412-1.562l8.027-8.025 2.292 2.292-8.026 8.026c-.406.406-.989.56-1.561.412-.174-.044-.356.005-.481.13l-.766.768c-.115.119-.246.169-.374.169-.432 0-.825-.572-.42-.962z" fill="#EBDBB2" data-original="#000000" class=""></path><mask id="mask-2" fill="rgb(0,0,0)"><use fill="rgb(0,0,0)" fill-rule="evenodd" xlink:href="#path-1" xmlns:xlink="http://www.w3.org/1999/xlink"></use></mask></defs><g xmlns="http://www.w3.org/2000/svg" id="eyedropper-alt" fill="none" fill-rule="evenodd"><use id="Shape" fill="rgb(0,0,0)" xlink:href="#path-1" xmlns:xlink="http://www.w3.org/1999/xlink"></use></g></g></svg>
