<svg xmlns="http://www.w3.org/2000/svg" version="1.1" xmlns:xlink="http://www.w3.org/1999/xlink" xmlns:svgjs="http://svgjs.com/svgjs" width="512" height="512" x="0" y="0" viewBox="0 0 64 64" style="enable-background:new 0 0 512 512" xml:space="preserve" class=""><g><g xmlns="http://www.w3.org/2000/svg" id="Layer_4" data-name="Layer 4"><path d="M59,17H12V16a1,1,0,0,0-1-1H5a1,1,0,0,0,0,2h5v3H7a1,1,0,0,0-1,1v8a1,1,0,0,0,1,1h3v2H7a1,1,0,0,0-1,1v8a1,1,0,0,0,1,1h3v6a1,1,0,0,0,2,0V45h2v3a1,1,0,0,0,1,1H31a1,1,0,0,0,1-1V45h2v3a1,1,0,0,0,1,1h8a1,1,0,0,0,1-1V45H59a1,1,0,0,0,1-1V18A1,1,0,0,0,59,17ZM8,28V22h2v6ZM8,40V34h2v6Zm8,5h2v2H16Zm4,0h2v2H20Zm4,0h2v2H24Zm6,2H28V45h2Zm6-2h2v2H36Zm6,2H40V45h2Zm16-4H12V19H58Z" fill="#e5e9f0" data-original="#000000" class=""></path><path d="M46,41A10,10,0,1,0,36,31,10,10,0,0,0,46,41Zm-6.65-5.56,4.42-2.21-2.21,4.42A8.3,8.3,0,0,1,39.35,35.44ZM46,39a8,8,0,0,1-2.65-.46L45.64,34a1.64,1.64,0,0,0,.72,0l2.29,4.58A8,8,0,0,1,46,39Zm-1-8a1,1,0,1,1,1,1A1,1,0,0,1,45,31Zm5.44,6.65-2.21-4.42,4.42,2.21A8.3,8.3,0,0,1,50.44,37.65Zm3.1-9.3a7.86,7.86,0,0,1,0,5.3L49,31.36a1.64,1.64,0,0,0,0-.72Zm-.89-1.79-4.42,2.21,2.21-4.42A8.3,8.3,0,0,1,52.65,26.56ZM46,23a8,8,0,0,1,2.65.46L46.36,28a1.64,1.64,0,0,0-.72,0l-2.29-4.58A8,8,0,0,1,46,23Zm-4.44,1.35,2.21,4.42-4.42-2.21A8.3,8.3,0,0,1,41.56,24.35ZM38,31a8,8,0,0,1,.46-2.65L43,30.64a1.64,1.64,0,0,0,0,.72l-4.58,2.29A8,8,0,0,1,38,31Z" fill="#e5e9f0" data-original="#000000" class=""></path><path d="M24,41A10,10,0,1,0,14,31,10,10,0,0,0,24,41Zm-6.65-5.56,4.42-2.21-2.21,4.42A8.3,8.3,0,0,1,17.35,35.44ZM24,39a8,8,0,0,1-2.65-.46L23.64,34a1.64,1.64,0,0,0,.72,0l2.29,4.58A8,8,0,0,1,24,39Zm-1-8a1,1,0,1,1,1,1A1,1,0,0,1,23,31Zm5.44,6.65-2.21-4.42,4.42,2.21A8.3,8.3,0,0,1,28.44,37.65Zm3.1-9.3a7.86,7.86,0,0,1,0,5.3L27,31.36a1.64,1.64,0,0,0,0-.72Zm-.89-1.79-4.42,2.21,2.21-4.42A8.3,8.3,0,0,1,30.65,26.56ZM24,23a8,8,0,0,1,2.65.46L24.36,28a1.64,1.64,0,0,0-.72,0l-2.29-4.58A8,8,0,0,1,24,23Zm-4.44,1.35,2.21,4.42-4.42-2.21A8.3,8.3,0,0,1,19.56,24.35ZM16,31a8,8,0,0,1,.46-2.65L21,30.64a1.64,1.64,0,0,0,0,.72l-4.58,2.29A8,8,0,0,1,16,31Z" fill="#e5e9f0" data-original="#000000" class=""></path></g></g></svg>
