<svg xmlns="http://www.w3.org/2000/svg" version="1.1" xmlns:xlink="http://www.w3.org/1999/xlink" xmlns:svgjs="http://svgjs.com/svgjs" width="512" height="512" x="0" y="0" viewBox="0 0 32 32" style="enable-background:new 0 0 512 512" xml:space="preserve" class=""><g><path xmlns="http://www.w3.org/2000/svg" d="m6.383 25.076a1 1 0 0 0 -1.09.217l-4 4a1 1 0 0 0 .707 1.707h4a1 1 0 0 0 1-1v-4a1 1 0 0 0 -.617-.924z" fill="#e5e9f0" data-original="#000000" class=""></path><path xmlns="http://www.w3.org/2000/svg" d="m14.383 17.076a1 1 0 0 0 -1.09.217l-4 4a1 1 0 0 0 -.293.707v8a1 1 0 0 0 1 1h4a1 1 0 0 0 1-1v-12a1 1 0 0 0 -.617-.924z" fill="#e5e9f0" data-original="#000000" class=""></path><path xmlns="http://www.w3.org/2000/svg" d="m22.383 9.076a1 1 0 0 0 -1.09.217l-4 4a1 1 0 0 0 -.293.707v16a1 1 0 0 0 1 1h4a1 1 0 0 0 1-1v-20a1 1 0 0 0 -.617-.924z" fill="#e5e9f0" data-original="#000000" class=""></path><path xmlns="http://www.w3.org/2000/svg" d="m30.383 1.076a1 1 0 0 0 -1.09.217l-4 4a1 1 0 0 0 -.293.707v24a1 1 0 0 0 1 1h4a1 1 0 0 0 1-1v-28a1 1 0 0 0 -.617-.924z" fill="#e5e9f0" data-original="#000000" class=""></path></g></svg>

