<svg xmlns="http://www.w3.org/2000/svg" version="1.1" xmlns:xlink="http://www.w3.org/1999/xlink" xmlns:svgjs="http://svgjs.com/svgjs" width="512" height="512" x="0" y="0" viewBox="0 0 300 300" style="enable-background:new 0 0 512 512" xml:space="preserve" class=""><g><g xmlns="http://www.w3.org/2000/svg"><path d="m126.6 158.4-86.4 56.1c-6.7 4.3-15-1.1-15-9.7v-109.5c0-8.7 8.3-14.1 15-9.7l86.4 56.1c6.1 3.9 6.1 12.7 0 16.7z" fill="#e5e9f0" data-original="#000000" class=""></path><g><path d="m198.7 216h-25.4c-5.5 0-10-4.5-10-10v-111.4c0-5.5 4.5-10 10-10h25.4c5.5 0 10 4.5 10 10v111.4c0 5.5-4.4 10-10 10z" fill="#e5e9f0" data-original="#000000" class=""></path><path d="m264.8 216h-25.4c-5.5 0-10-4.5-10-10v-111.4c0-5.5 4.5-10 10-10h25.4c5.5 0 10 4.5 10 10v111.4c0 5.5-4.5 10-10 10z" fill="#e5e9f0" data-original="#000000" class=""></path></g></g></g></svg>
