<svg xmlns="http://www.w3.org/2000/svg" version="1.1" xmlns:xlink="http://www.w3.org/1999/xlink" xmlns:svgjs="http://svgjs.com/svgjs" width="512" height="512" x="0" y="0" viewBox="0 0 511.991 511.991" style="enable-background:new 0 0 512 512" xml:space="preserve" class=""><g><g xmlns="http://www.w3.org/2000/svg"><path d="m61.904 167.481c0 9.748 7.903 17.651 17.651 17.651h114.532c9.748 0 17.651-7.903 17.651-17.651s-7.903-17.651-17.651-17.651h-114.532c-9.748 0-17.651 7.903-17.651 17.651z" fill="#e5e9f0" data-original="#000000" class=""></path><path d="m194.087 210.945h-114.532c-9.748 0-17.651 7.903-17.651 17.651s7.903 17.651 17.651 17.651h114.532c9.748 0 17.651-7.903 17.651-17.651s-7.902-17.651-17.651-17.651z" fill="#e5e9f0" data-original="#000000" class=""></path><path d="m194.087 272.061h-114.532c-9.748 0-17.651 7.903-17.651 17.651s7.903 17.651 17.651 17.651h114.532c9.748 0 17.651-7.903 17.651-17.651s-7.902-17.651-17.651-17.651z" fill="#e5e9f0" data-original="#000000" class=""></path><path d="m504.08 96.722c-21.894-14.476-67.752-38.759-128.91-38.759-53.21 0-94.836 18.381-119.175 32.694-24.34-14.313-65.965-32.694-119.175-32.694-61.157 0-107.017 24.283-128.904 38.759-4.944 3.268-7.917 8.8-7.917 14.726v324.924c-.001 9.748 7.9 17.652 17.649 17.654 3.463 0 6.849-1.018 9.738-2.928 18.586-12.288 57.521-32.904 109.437-32.904s90.853 20.616 109.437 32.904c5.42 3.583 12.37 3.899 18.093.822.466-.25.908-.527 1.349-.814.007 0 .02 0 .027-.008 18.587-12.289 57.52-32.904 109.437-32.904s90.853 20.615 109.437 32.904c8.132 5.377 19.082 3.143 24.459-4.988 1.91-2.888 2.928-6.275 2.928-9.738v-324.927c.002-5.924-2.969-11.454-7.91-14.723zm-265.736 309.473c-64.116-31.072-138.931-31.072-203.047 0v-284.972c30.753-18.181 65.798-27.831 101.523-27.957 35.725.126 70.77 9.777 101.524 27.957zm238.35 0c-64.116-31.073-138.931-31.073-203.047 0v-284.971c62.55-37.277 140.497-37.277 203.047 0z" fill="#e5e9f0" data-original="#000000" class=""></path><path d="m300.254 167.481c0 9.748 7.903 17.651 17.651 17.651h114.531c9.748 0 17.651-7.903 17.651-17.651s-7.903-17.651-17.651-17.651h-114.531c-9.749 0-17.651 7.903-17.651 17.651z" fill="#e5e9f0" data-original="#000000" class=""></path><path d="m432.436 210.945h-114.531c-9.748 0-17.651 7.903-17.651 17.651s7.903 17.651 17.651 17.651h114.531c9.748 0 17.651-7.903 17.651-17.651s-7.903-17.651-17.651-17.651z" fill="#e5e9f0" data-original="#000000" class=""></path><path d="m432.436 272.061h-114.531c-9.748 0-17.651 7.903-17.651 17.651s7.903 17.651 17.651 17.651h114.531c9.748 0 17.651-7.903 17.651-17.651s-7.903-17.651-17.651-17.651z" fill="#e5e9f0" data-original="#000000" class=""></path></g></g></svg>
