<svg xmlns="http://www.w3.org/2000/svg" version="1.1" xmlns:xlink="http://www.w3.org/1999/xlink" xmlns:svgjs="http://svgjs.com/svgjs" width="512" height="512" x="0" y="0" viewBox="0 0 24 24" style="enable-background:new 0 0 512 512" xml:space="preserve" class=""><g><path xmlns="http://www.w3.org/2000/svg" d="m19 2.5h-14a2.50263 2.50263 0 0 0 -2.5 2.5v14a2.50263 2.50263 0 0 0 2.5 2.5h14a2.50263 2.50263 0 0 0 2.5-2.5v-14a2.50263 2.50263 0 0 0 -2.5-2.5zm-4.5 18h-9.5a1.50164 1.50164 0 0 1 -1.5-1.5v-14a1.50164 1.50164 0 0 1 1.5-1.5h9.5zm6-1.5a1.50164 1.50164 0 0 1 -1.5 1.5h-3.5v-17h3.5a1.50164 1.50164 0 0 1 1.5 1.5zm-1-13a.49971.49971 0 0 1 -.5.5h-2a.5.5 0 0 1 0-1h2a.49971.49971 0 0 1 .5.5zm0 3a.49971.49971 0 0 1 -.5.5h-2a.5.5 0 0 1 0-1h2a.49971.49971 0 0 1 .5.5zm0 3a.49971.49971 0 0 1 -.5.5h-2a.5.5 0 0 1 0-1h2a.49971.49971 0 0 1 .5.5z" fill="#e5e9f0" data-original="#000000" class=""></path></g></svg>
